<?xml version="1.0" encoding="UTF-8"?>
<svg width="2737px" height="512px" viewBox="0 0 2737 512" version="1.1" xmlns="http://www.w3.org/2000/svg">
    <!-- Generator: Sketch 53.2 (72643) - https://sketchapp.com -->
    <title>Logo Text</title>
    <desc>Created with Sketch.</desc>
    <g id="Logo-Text" stroke="none" stroke-width="1" fill="none" fill-rule="evenodd">
        <path d="M497.245547,136.948521 C520.390161,160.21342 531.974979,195.073123 532,241.527629 L532,422 L440.872774,422 L440.872774,255.607034 C440.872774,230.510056 435.705895,211.850453 425.372137,199.628224 C415.03838,187.405996 400.338422,181.219591 381.272265,181.069009 C359.77905,181.069009 342.839695,188.045969 330.454198,201.999889 C318.068702,215.953809 311.838422,236.583525 311.763359,263.889037 L311.763359,422 L220.636132,422 L220.636132,255.607034 C220.636132,205.915017 200.781807,181.069009 161.073155,181.069009 C140.030322,181.069009 123.278626,188.008323 110.818066,201.886952 C98.3575064,215.765581 92.1272265,236.432943 92.1272265,263.889037 L92.1272265,422 L1,422 L1,106.756856 L88.0362595,106.756856 L88.0362595,143.122378 C99.8097495,129.76992 114.505657,119.333089 130.972646,112.629549 C148.679285,105.421975 167.636766,101.813496 186.744911,102.013527 C207.505287,101.719313 228.053996,106.227956 246.795802,115.189441 C264.458286,123.751185 279.420449,137.039052 290.032443,153.587818 C302.982888,137.115486 319.725957,124.042178 338.823791,115.490605 C359.150728,106.349533 381.216193,101.75095 403.491094,102.013527 C442.824427,102.013527 474.075912,113.658525 497.245547,136.948521 Z" id="Path" fill="#000000" fill-rule="nonzero"></path>
        <path d="M921.267151,289.116483 L683.630851,289.116483 C687.420167,307.815948 698.297876,324.330518 713.992153,335.211102 C729.979687,346.503659 749.845261,352.137445 773.588875,352.112462 C788.426953,352.319034 803.174868,349.777767 817.085475,344.617402 C830.306637,339.413446 842.333345,331.585687 852.438191,321.607568 L900.926204,374.072987 C871.328,407.975642 828.069086,424.93946 771.149463,424.964444 C738.673187,425.568598 706.517162,418.465943 677.325908,404.240603 C651.219881,391.520678 629.322538,371.580038 614.238949,346.790969 C599.229662,321.579557 591.537285,292.696895 592.021531,263.370952 C591.62393,234.263729 599.16108,205.596501 613.826126,180.438115 C628.138569,156.037393 648.916981,136.054044 673.873201,122.688678 C726.860154,95.410855 789.717721,95.0904735 842.980777,121.826746 C867.604972,134.775578 887.980149,154.522966 901.676793,178.714251 C915.912954,203.422965 923.018524,232.154028 922.993505,264.90744 C923.068563,265.83183 922.493112,273.901512 921.267151,289.116483 Z M707.745635,188.408375 C693.43076,200.495296 684.237563,217.489212 682,236 L837,236 C834.615936,217.628033 825.458273,200.781258 811.29195,188.706522 C796.867384,176.802225 778.560298,170.521589 759.800679,171.041345 C740.906789,170.430906 722.424585,176.59709 707.745635,188.408375 L707.745635,188.408375 Z" id="Shape" fill="#000000" fill-rule="nonzero"></path>
        <path d="M1191,408.880309 C1181.04242,416.039462 1169.77816,421.169214 1157.84696,423.978225 C1144.29595,427.37515 1130.37425,429.061578 1116.40566,428.998283 C1078.88244,428.998283 1049.86098,419.398524 1029.34125,400.199008 C1008.82153,380.999491 998.56167,352.804133 998.56167,315.612933 L998.56167,185.468896 L950,185.468896 L950,114.961627 L998.674691,114.961627 L998.674691,38 L1090.14694,38 L1090.14694,114.961627 L1168.69705,114.961627 L1168.69705,185.468896 L1090.14694,185.468896 L1090.14694,314.140886 C1090.14694,327.427052 1093.5376,337.73138 1100.39425,344.978379 C1107.2509,352.225379 1116.82007,356.037603 1129.44083,356.037603 C1142.72293,356.409254 1155.73833,352.257779 1166.36126,344.261228 L1191,408.880309 Z" id="Path" fill="#000000" fill-rule="nonzero"></path>
        <path d="M1479.03156,136.748055 C1505.01052,159.888375 1518,194.761111 1518,241.366264 L1518,420.273137 L1433.26325,420.273137 L1433.26325,381.219167 C1416.17641,410.350508 1384.38145,424.92866 1337.87836,424.953622 C1316.40854,425.491885 1295.07916,421.339308 1275.37193,412.78436 C1258.95474,405.662673 1244.92348,393.965959 1234.94637,379.084866 C1225.59249,364.503642 1220.74435,347.478356 1221.01039,330.145711 C1221.01039,300.989407 1231.95742,278.061269 1253.85149,261.361298 C1275.74555,244.661326 1309.57051,236.31134 1355.32636,236.31134 L1427.4348,236.31134 C1427.4348,216.516007 1421.41953,201.263866 1409.38901,190.554915 C1397.35848,179.845964 1379.3376,174.503971 1355.32636,174.528933 C1338.63762,174.530702 1322.05473,177.184732 1306.19548,182.392149 C1291.34154,186.971824 1277.42351,194.174364 1265.09741,203.660274 L1232.55521,140.005673 C1251.23672,127.196701 1271.99388,117.732857 1293.90342,112.035092 C1317.88108,105.351753 1342.65597,101.97568 1367.5437,102.000132 C1416.01451,102.000132 1453.17713,113.582773 1479.03156,136.748055 Z M1401.46506,352.993257 C1413.46376,345.756274 1422.51664,334.439231 1427,321.071915 L1427,289 L1364.93333,289 C1327.65605,289 1309.01741,301.309291 1309.01741,325.927874 C1308.66141,336.923514 1313.78396,347.368087 1322.66089,353.746119 C1331.75655,360.597162 1344.18231,364.010136 1359.93817,363.98504 C1374.52083,364.270508 1388.89608,360.465513 1401.46506,352.993257 L1401.46506,352.993257 Z" id="Shape" fill="#000000" fill-rule="nonzero"></path>
        <path d="M1898,260.017279 C1898,352.989437 1838.33291,418.464375 1758.7893,418.464375 C1713.10692,419.306777 1670.74127,394.698465 1648.84855,354.604711 L1648.84855,512 L1605,512 L1605,109.195779 L1648.84855,109.195779 L1648.84855,165.880622 C1670.74127,125.786867 1713.10692,101.178555 1758.7893,102.020958 C1838.33291,102.171216 1898,167.646153 1898,260.017279 Z M1852,259.6994 C1852,190.110515 1809.86651,141 1750.78189,141 C1691.69728,141 1649,190.110515 1649,259.6994 C1649,329.288285 1691.13349,379 1750.78189,379 C1810.43029,379 1852,329.137985 1852,259.6994 L1852,259.6994 Z" id="Shape" fill="#000000" fill-rule="nonzero"></path>
        <polygon id="Path" fill="#000000" fill-rule="nonzero" points="1974 0 2019 0 2019 410 1974 410"></polygon>
        <path d="M2361,109 L2361,410.981538 L2317.27166,410.981538 L2317.27166,362.527876 C2299.77283,394.655168 2260.69087,418 2218.12412,418 C2151.65105,418 2105,369.508806 2105,301.163245 L2105,109 L2148.72834,109 L2148.72834,295.27074 C2148.72834,344.324912 2179.64169,378.779181 2223.96956,378.779181 C2274.70492,378.779181 2317.27166,343.161424 2317.27166,301.088182 L2317.27166,109 L2361,109 Z" id="Path" fill="#000000" fill-rule="nonzero"></path>
        <g id="Group" transform="translate(2422.000000, 98.000000)" fill="#000000" fill-rule="nonzero">
            <path d="M309,7.04463795 L309,277.905316 C309,355.886068 247.535412,411 160.357198,411 C111.22312,411 65.5851937,394.009991 38.1046959,370.578093 L57.3899153,335.957654 C80.8103669,358.259395 117.087632,371.745921 154.53028,371.745921 C224.152553,371.745921 265.091352,337.125481 265.091352,277.905316 L265.091352,228.668194 C241.708494,265.62429 203.100462,287.888359 155.094175,287.888359 C73.7804722,287.888359 16,228.065445 16,143.642805 C16,59.220165 73.9308442,0 155.094175,0 C203.100462,0 241.558122,22.3017415 265.091352,59.220165 L265.091352,7.04463795 L309,7.04463795 Z M265.279317,143.642805 C265.279317,82.6897342 223.175135,39.2917507 163.477419,39.2917507 C104.381191,39.2917507 62.277008,82.6897342 62.277008,143.642805 C62.277008,205.198625 104.381191,248.596609 163.477419,248.596609 C222.98717,248.596609 265.279317,205.311641 265.279317,143.642805 Z" id="Shape"></path>
            <polygon id="Path" points="88.1798054 368.264432 83.7088225 343.512849 77.9979873 320.378771 49.1808118 303 40.4642737 317.407076 26.0744717 308.717691 17.3579336 323.162384 31.7853069 331.851769 23.1063402 346.258845 8.67896679 337.56946 0 352.014153 14.4273734 360.703538 5.71083529 375.148231 34.565582 392.527002 69.2063066 383.950466 112 404"></polygon>
        </g>
    </g>
</svg>