<?xml version="1.0" encoding="UTF-8"?>
<svg width="512px" height="512px" viewBox="0 0 512 512" version="1.1" xmlns="http://www.w3.org/2000/svg">
    <!-- Generator: Sketch 53.2 (72643) - https://sketchapp.com -->
    <title>Logo</title>
    <desc>Created with Sketch.</desc>
    <g id="Logo" stroke="none" stroke-width="1" fill="none" fill-rule="evenodd">
        <polygon id="Path" fill="#FFFFFF" fill-rule="nonzero" points="436.41 265.38 357.23 183 156.23 183 75.23 265.27 255.88 465.49"></polygon>
        <path d="M255.88,465.49 L75.22,265.3 L156.22,183.03 L357.22,183.03 L436.4,265.38 L255.88,465.49 Z M139,265.92 L204,201.65 L174.74,201.65 L106.59,265.92 L246.14,431.67 L139,265.92 Z M265.61,431.67 L405.16,265.92 L337,201.65 L307.8,201.65 L372.71,265.92 L265.61,431.67 Z M194.21,265.92 L255.88,428.29 L317.54,265.92 L255.88,201.65 L194.21,265.92 Z M255.88,242.24 L271.49,262.89 L255.88,316.13 L240.26,262.89 L255.88,242.24 Z" id="Shape" fill="#DB072F" fill-rule="nonzero"></path>
        <path d="M255.88,504.26 L31,257.21 L132.35,152.69 L132.35,7 L176.69,7 L176.69,155.86 L335.06,155.86 L335.06,7 L379.4,7 L379.4,152.69 L480.75,257.21 L255.88,504.26 Z M436.41,265.38 L357.23,183 L156.23,183 L75.23,265.27 L255.88,465.49 L436.41,265.38 Z M154.52,16.5 C147.52,16.5 141.85,24.3 141.85,33.92 C141.85,43.54 147.53,51.34 154.52,51.34 C161.51,51.34 167.19,43.54 167.19,33.92 C167.19,24.3 161.52,16.5 154.52,16.5 Z M357.23,16.5 C350.23,16.5 344.56,24.3 344.56,33.92 C344.56,43.54 350.23,51.34 357.23,51.34 C364.23,51.34 369.9,43.54 369.9,33.92 C369.9,24.3 364.23,16.5 357.23,16.5 Z" id="Shape" fill="#6348ED" fill-rule="nonzero"></path>
    </g>
</svg>