<?xml version="1.0" encoding="utf-8"?>
<!-- Generator: Adobe Illustrator 22.1.0, SVG Export Plug-In . SVG Version: 6.00 Build 0)  -->
<svg version="1.1" id="Layer_1" xmlns="http://www.w3.org/2000/svg" x="0px" y="0px"
     viewBox="0 0 512 512" style="enable-background:new 0 0 512 512;" xml:space="preserve">
<style type="text/css">
	.st0{fill:#FFFFFF;}
	.st1{fill:#791490;stroke:#791490;stroke-miterlimit:10;}
	.st2{fill:#791490;}
</style>
<title>Logo</title>
<desc>Created with Sketch.</desc>
<g id="Logo">
	<polygon id="Path" class="st0" points="436.4,265.4 357.2,183 156.2,183 75.2,265.3 255.9,465.5 	"/>
	<path id="Shape" class="st1" d="M255.9,465.5L75.2,265.3l81-82.3h201l79.2,82.4L255.9,465.5z M139,265.9l65-64.3h-29.3l-68.2,64.3
		l139.6,165.8L139,265.9z M265.6,431.7l139.6-165.8L337,201.6h-29.2l64.9,64.3L265.6,431.7z M194.2,265.9l61.7,162.4l61.7-162.4
		l-61.7-64.3L194.2,265.9z M255.9,242.2l15.6,20.7l-15.6,53.2l-15.6-53.2L255.9,242.2z"/>
	<path id="Shape_1_" class="st2" d="M255.9,504.3L31,257.2l101.4-104.5V7h44.3v148.9h158.4V7h44.3v145.7l101.4,104.5L255.9,504.3z
		 M436.4,265.4L357.2,183h-201l-81,82.3l180.6,200.2L436.4,265.4z M154.5,16.5c-7,0-12.7,7.8-12.7,17.4s5.7,17.4,12.7,17.4
		s12.7-7.8,12.7-17.4S161.5,16.5,154.5,16.5z M357.2,16.5c-7,0-12.7,7.8-12.7,17.4s5.7,17.4,12.7,17.4s12.7-7.8,12.7-17.4
		S364.2,16.5,357.2,16.5z"/>
</g>
</svg>
