<?xml version="1.0" encoding="utf-8"?>
<!-- Generator: Adobe Illustrator 22.1.0, SVG Export Plug-In . SVG Version: 6.00 Build 0)  -->
<svg version="1.1" id="Layer_1" xmlns="http://www.w3.org/2000/svg" xmlns:xlink="http://www.w3.org/1999/xlink" x="0px" y="0px"
	 viewBox="0 0 475.9 445.9" style="enable-background:new 0 0 475.9 445.9;" xml:space="preserve">
<style type="text/css">
	.st0{fill:url(#monitor_1_);}
	.st1{fill:url(#Bezel_1_);}
	.st2{opacity:0.3;}
</style>
<radialGradient id="monitor_1_" cx="237.9301" cy="222.9643" r="230.5686" gradientTransform="matrix(1 0 0 0.4 0 133.7786)" gradientUnits="userSpaceOnUse">
	<stop  offset="0" style="stop-color:#282850"/>
	<stop  offset="0.52" style="stop-color:#27284E"/>
	<stop  offset="0.7073" style="stop-color:#262747"/>
	<stop  offset="0.8403" style="stop-color:#22263C"/>
	<stop  offset="0.9016" style="stop-color:#202533"/>
	<stop  offset="0.9063" style="stop-color:#1F2331"/>
	<stop  offset="0.9311" style="stop-color:#1E1E2A"/>
	<stop  offset="1" style="stop-color:#1D1D28"/>
</radialGradient>
<path id="monitor_9_" class="st0" d="M6.6,16.1c41.9-5.2,232.6-30.3,462.8-5c3.7,0.4,6.5,3.7,6.5,7.5v398.4c0,3.6-2.5,6.7-6.1,7.4
	c-38,7.6-249.2,45.3-463.8-1.2c-3.5-0.8-5.9-3.8-5.9-7.4L0,23.6C0,19.8,2.8,16.6,6.6,16.1z M20.6,48.4v322c0,2,2.2,3.7,3.9,4.8
	c1.2,0.7,2.5,1.1,3.9,1.1c14.5-0.1,107.3-0.4,121.4,0.4c15.3,0.9,56.4,15.8,87.5,15.8c28.7,1.2,67.7-14.4,93-15.3
	c25.3-0.9,120.3,0.4,120.3,0.4c3.3,0,5.9-2.6,5.9-5.9V48.4c0-2-2.3-3.8-4-4.9c-1.1-0.7-2.4-1.1-3.7-1.1
	c-211.5-6.1-422.3,0.1-422.3,0.1C23.2,42.5,20.6,45.1,20.6,48.4z"/>
<radialGradient id="Bezel_1_" cx="239.1946" cy="216.8884" r="199.6105" gradientTransform="matrix(1 0 0 0.44 0 121.4575)" gradientUnits="userSpaceOnUse">
	<stop  offset="0.8076" style="stop-color:#343B5E"/>
	<stop  offset="0.8598" style="stop-color:#30354F"/>
	<stop  offset="0.9409" style="stop-color:#2B2E3D"/>
	<stop  offset="1" style="stop-color:#292C37"/>
	<stop  offset="1" style="stop-color:#292C37"/>
	<stop  offset="1" style="stop-color:#292C37"/>
</radialGradient>
<path id="Bezel_9_" class="st1" d="M444.3,56.8c0,0,2.9,159.8-1,310.2l-410.5-1.1c-2.9-147.3,2.3-308.9,2.3-308.9
	C241.3,47.2,444.3,56.8,444.3,56.8z M20.1,47.8l-0.4,324c0,3.3,5.9,5.9,5.9,5.9s109.6-0.4,124.9,0.5c15.3,0.9,56.6,16,87.8,16
	c28.7,1.3,68-14.4,93.3-15.3s120.6,0.5,120.6,0.5c3.3,0,6-2.7,6-5.9l0.4-325.2c0-3.3-5.9-5.9-5.9-5.9C240,35.9,26.1,41.9,26.1,41.9
	C22.8,41.9,20.1,44.5,20.1,47.8z"/>
<g id="LOGO_9_" class="st2">
	
		<image style="overflow:visible;" width="92" height="109" id="Layer_1_19_" xlink:href="B5D0E7EDB600C9B8.png"  transform="matrix(0.325 0 0 0.325 222.9924 403.1107)">
	</image>
</g>
</svg>
